<svg width="31" height="31" viewBox="0 0 31 31" fill="none" xmlns="http://www.w3.org/2000/svg">
<path d="M25.8334 25.8333C25.8334 26.1759 25.6973 26.5044 25.455 26.7466C25.2128 26.9889 24.8843 27.125 24.5417 27.125H6.45835C6.11578 27.125 5.78724 26.9889 5.54501 26.7466C5.30277 26.5044 5.16669 26.1759 5.16669 25.8333V14.2083H1.29169L14.6307 2.08214C14.8685 1.86576 15.1785 1.74585 15.5 1.74585C15.8215 1.74585 16.1315 1.86576 16.3693 2.08214L29.7084 14.2083H25.8334V25.8333ZM9.68752 16.7916C9.68752 18.3332 10.2999 19.8116 11.39 20.9017C12.48 21.9917 13.9584 22.6041 15.5 22.6041C17.0416 22.6041 18.52 21.9917 19.6101 20.9017C20.7001 19.8116 21.3125 18.3332 21.3125 16.7916H18.7292C18.7292 17.6481 18.389 18.4694 17.7834 19.075C17.1778 19.6806 16.3564 20.0208 15.5 20.0208C14.6436 20.0208 13.8222 19.6806 13.2167 19.075C12.6111 18.4694 12.2709 17.6481 12.2709 16.7916H9.68752Z" fill="#183459"/>
</svg>
