<svg width="75" height="75" viewBox="0 0 75 75" fill="none" xmlns="http://www.w3.org/2000/svg">
<path d="M62.5 62.4999C62.5 63.3287 62.1708 64.1236 61.5847 64.7096C60.9987 65.2957 60.2038 65.6249 59.375 65.6249H15.625C14.7962 65.6249 14.0013 65.2957 13.4153 64.7096C12.8292 64.1236 12.5 63.3287 12.5 62.4999V34.375H3.125L35.3969 5.03749C35.9722 4.51399 36.7221 4.22388 37.5 4.22388C38.2779 4.22388 39.0278 4.51399 39.6031 5.03749L71.875 34.375H62.5V62.4999ZM23.4375 40.625C23.4375 44.3546 24.9191 47.9314 27.5563 50.5686C30.1935 53.2059 33.7704 54.6874 37.5 54.6874C41.2296 54.6874 44.8065 53.2059 47.4437 50.5686C50.0809 47.9314 51.5625 44.3546 51.5625 40.625H45.3125C45.3125 42.697 44.4894 44.6841 43.0243 46.1492C41.5591 47.6144 39.572 48.4375 37.5 48.4375C35.428 48.4375 33.4409 47.6144 31.9757 46.1492C30.5106 44.6841 29.6875 42.697 29.6875 40.625H23.4375Z" fill="#183459"/>
</svg>
