<svg width="20" height="21" viewBox="0 0 20 21" fill="none" xmlns="http://www.w3.org/2000/svg">
<path d="M15 11.3317H10.8333V15.4983C10.8333 15.7194 10.7455 15.9313 10.5892 16.0876C10.4329 16.2439 10.221 16.3317 9.99996 16.3317C9.77895 16.3317 9.56698 16.2439 9.4107 16.0876C9.25442 15.9313 9.16663 15.7194 9.16663 15.4983V11.3317H4.99996C4.77895 11.3317 4.56698 11.2439 4.4107 11.0876C4.25442 10.9313 4.16663 10.7194 4.16663 10.4983C4.16663 10.2773 4.25442 10.0654 4.4107 9.90909C4.56698 9.75281 4.77895 9.66501 4.99996 9.66501H9.16663V5.49834C9.16663 5.27733 9.25442 5.06537 9.4107 4.90909C9.56698 4.75281 9.77895 4.66501 9.99996 4.66501C10.221 4.66501 10.4329 4.75281 10.5892 4.90909C10.7455 5.06537 10.8333 5.27733 10.8333 5.49834V9.66501H15C15.221 9.66501 15.4329 9.75281 15.5892 9.90909C15.7455 10.0654 15.8333 10.2773 15.8333 10.4983C15.8333 10.7194 15.7455 10.9313 15.5892 11.0876C15.4329 11.2439 15.221 11.3317 15 11.3317Z" fill="white"/>
</svg>
