<svg width="24" height="25" viewBox="0 0 24 25" fill="none" xmlns="http://www.w3.org/2000/svg">
<path d="M4 2.5H20C20.2652 2.5 20.5196 2.60536 20.7071 2.79289C20.8946 2.98043 21 3.23478 21 3.5V21.5C21 21.7652 20.8946 22.0196 20.7071 22.2071C20.5196 22.3946 20.2652 22.5 20 22.5H4C3.73478 22.5 3.48043 22.3946 3.29289 22.2071C3.10536 22.0196 3 21.7652 3 21.5V3.5C3 3.23478 3.10536 2.98043 3.29289 2.79289C3.48043 2.60536 3.73478 2.5 4 2.5ZM5 4.5V20.5H19V4.5H5ZM7 6.5H17V10.5H7V6.5ZM7 12.5H9V14.5H7V12.5ZM7 16.5H9V18.5H7V16.5ZM11 12.5H13V14.5H11V12.5ZM11 16.5H13V18.5H11V16.5ZM15 12.5H17V18.5H15V12.5Z" fill="#7E7E7E"/>
</svg>
