<svg width="24" height="25" viewBox="0 0 24 25" fill="none" xmlns="http://www.w3.org/2000/svg">
<path d="M12 22.5C6.477 22.5 2 18.023 2 12.5C2 6.977 6.477 2.5 12 2.5C17.523 2.5 22 6.977 22 12.5C22 18.023 17.523 22.5 12 22.5ZM12 20.5C14.1217 20.5 16.1566 19.6571 17.6569 18.1569C19.1571 16.6566 20 14.6217 20 12.5C20 10.3783 19.1571 8.34344 17.6569 6.84315C16.1566 5.34285 14.1217 4.5 12 4.5C9.87827 4.5 7.84344 5.34285 6.34315 6.84315C4.84285 8.34344 4 10.3783 4 12.5C4 14.6217 4.84285 16.6566 6.34315 18.1569C7.84344 19.6571 9.87827 20.5 12 20.5ZM10.05 11.5H15V13.5H10.05C10.1366 13.9253 10.3325 14.3208 10.6184 14.6474C10.9042 14.9741 11.2702 15.2207 11.6803 15.3629C12.0903 15.5052 12.5304 15.5383 12.9571 15.4589C13.3839 15.3794 13.7826 15.1903 14.114 14.91L15.814 16.043C15.2298 16.6789 14.475 17.1333 13.6397 17.352C12.8043 17.5707 11.9237 17.5445 11.1029 17.2764C10.282 17.0083 9.55568 16.5097 9.01045 15.8401C8.46523 15.1705 8.12418 14.3581 8.028 13.5H7V11.5H8.027C8.12285 10.6414 8.46382 9.82861 9.00916 9.1586C9.55451 8.48859 10.2812 7.98972 11.1024 7.72157C11.9236 7.45342 12.8047 7.42732 13.6404 7.64639C14.476 7.86546 15.2309 8.32045 15.815 8.957L14.114 10.09C13.7826 9.80972 13.3839 9.62056 12.9571 9.54114C12.5304 9.46172 12.0903 9.49478 11.6803 9.63706C11.2702 9.77933 10.9042 10.0259 10.6184 10.3526C10.3325 10.6792 10.1366 11.0747 10.05 11.5Z" fill="#7E7E7E"/>
</svg>
