<svg width="24" height="25" viewBox="0 0 24 25" fill="none" xmlns="http://www.w3.org/2000/svg">
<path d="M3.34 17.5C2.91727 16.769 2.58866 15.9875 2.362 15.174C2.85531 14.9231 3.26959 14.5406 3.55903 14.0689C3.84846 13.5972 4.00176 13.0546 4.00197 12.5011C4.00218 11.9477 3.84928 11.4049 3.5602 10.933C3.27112 10.4611 2.85712 10.0783 2.364 9.827C2.81604 8.19249 3.67673 6.69995 4.865 5.49C5.32909 5.79172 5.86762 5.95916 6.42098 5.97378C6.97434 5.9884 7.52095 5.84963 8.00033 5.57283C8.47971 5.29603 8.87315 4.892 9.13713 4.40544C9.4011 3.91888 9.52531 3.36878 9.496 2.816C11.1381 2.39162 12.8612 2.39231 14.503 2.818C14.474 3.37077 14.5984 3.92079 14.8626 4.40721C15.1268 4.89363 15.5204 5.29747 15.9998 5.57406C16.4793 5.85065 17.0259 5.98919 17.5793 5.97435C18.1326 5.95952 18.671 5.79188 19.135 5.49C19.7262 6.09286 20.2387 6.76824 20.66 7.5C21.093 8.249 21.417 9.03 21.638 9.826C21.1447 10.0769 20.7304 10.4594 20.441 10.9311C20.1515 11.4028 19.9982 11.9454 19.998 12.4989C19.9978 13.0523 20.1507 13.5951 20.4398 14.067C20.7289 14.5389 21.1429 14.9217 21.636 15.173C21.184 16.8075 20.3233 18.3 19.135 19.51C18.6709 19.2083 18.1324 19.0408 17.579 19.0262C17.0257 19.0116 16.479 19.1504 15.9997 19.4272C15.5203 19.704 15.1268 20.108 14.8629 20.5946C14.5989 21.0811 14.4747 21.6312 14.504 22.184C12.8619 22.6084 11.1388 22.6077 9.497 22.182C9.52605 21.6292 9.4016 21.0792 9.13742 20.5928C8.87324 20.1064 8.47964 19.7025 8.00017 19.4259C7.5207 19.1494 6.97405 19.0108 6.42073 19.0256C5.8674 19.0405 5.32896 19.2081 4.865 19.51C4.27399 18.9069 3.76159 18.2316 3.34 17.5ZM9 17.696C10.0656 18.3106 10.8668 19.297 11.25 20.466C11.749 20.513 12.25 20.514 12.749 20.467C13.1324 19.2979 13.934 18.3114 15 17.697C16.0652 17.0807 17.3205 16.8795 18.525 17.132C18.815 16.724 19.065 16.289 19.273 15.834C18.4524 14.9174 17.9991 13.7302 18 12.5C18 11.24 18.47 10.063 19.273 9.166C19.0635 8.71115 18.8125 8.27663 18.523 7.868C17.3193 8.12031 16.0648 7.91948 15 7.304C13.9344 6.68937 13.1332 5.70298 12.75 4.534C12.251 4.487 11.75 4.486 11.251 4.533C10.8676 5.70215 10.066 6.68856 9 7.303C7.93478 7.91931 6.67948 8.12052 5.475 7.868C5.18556 8.27629 4.93513 8.71086 4.727 9.166C5.54757 10.0826 6.00088 11.2698 6 12.5C6.00117 13.7303 5.54782 14.9176 4.727 15.834C4.93647 16.2889 5.18754 16.7234 5.477 17.132C6.68072 16.8797 7.93521 17.0805 9 17.696ZM12 15.5C11.2044 15.5 10.4413 15.1839 9.87868 14.6213C9.31607 14.0587 9 13.2956 9 12.5C9 11.7044 9.31607 10.9413 9.87868 10.3787C10.4413 9.81607 11.2044 9.5 12 9.5C12.7956 9.5 13.5587 9.81607 14.1213 10.3787C14.6839 10.9413 15 11.7044 15 12.5C15 13.2956 14.6839 14.0587 14.1213 14.6213C13.5587 15.1839 12.7956 15.5 12 15.5ZM12 13.5C12.2652 13.5 12.5196 13.3946 12.7071 13.2071C12.8946 13.0196 13 12.7652 13 12.5C13 12.2348 12.8946 11.9804 12.7071 11.7929C12.5196 11.6054 12.2652 11.5 12 11.5C11.7348 11.5 11.4804 11.6054 11.2929 11.7929C11.1054 11.9804 11 12.2348 11 12.5C11 12.7652 11.1054 13.0196 11.2929 13.2071C11.4804 13.3946 11.7348 13.5 12 13.5Z" fill="#7E7E7E"/>
</svg>
